solid 
 facet normal  0.000000e+00 -0.000000e+00 -1.000000e+00
   outer loop
     vertex  3.050000e+02  4.140048e+01 -5.000000e+00
     vertex  3.050000e+02 -1.224647e-15 -5.000000e+00
     vertex  2.950000e+02  1.224647e-15 -5.000000e+00
   endloop
 endfacet
 facet normal  0.000000e+00  0.000000e+00 -1.000000e+00
   outer loop
     vertex  2.950000e+02  4.140048e+01 -5.000000e+00
     vertex  3.050000e+02  4.140048e+01 -5.000000e+00
     vertex  2.950000e+02  1.224647e-15 -5.000000e+00
   endloop
 endfacet
 facet normal -1.000000e+00  0.000000e+00 -0.000000e+00
   outer loop
     vertex  2.950000e+02  4.140048e+01  5.000000e+00
     vertex  2.950000e+02  4.140048e+01 -5.000000e+00
     vertex  2.950000e+02  1.224647e-15 -5.000000e+00
   endloop
 endfacet
 facet normal -1.000000e+00  0.000000e+00  0.000000e+00
   outer loop
     vertex  2.950000e+02  4.140048e+01  5.000000e+00
     vertex  2.950000e+02  1.224647e-15 -5.000000e+00
     vertex  2.950000e+02  1.224647e-15  5.000000e+00
   endloop
 endfacet
 facet normal -5.144958e-01 -9.565963e-17  8.574929e-01
   outer loop
     vertex  3.000000e+02  4.140048e+01  8.000000e+00
     vertex  2.950000e+02  4.140048e+01  5.000000e+00
     vertex  2.950000e+02  1.224647e-15  5.000000e+00
   endloop
 endfacet
 facet normal -5.144958e-01  9.198041e-17  8.574929e-01
   outer loop
     vertex  3.000000e+02  4.140048e+01  8.000000e+00
     vertex  2.950000e+02  1.224647e-15  5.000000e+00
     vertex  3.000000e+02  0.000000e+00  8.000000e+00
   endloop
 endfacet
 facet normal  5.144958e-01  9.198041e-17  8.574929e-01
   outer loop
     vertex  3.050000e+02  4.140048e+01  5.000000e+00
     vertex  3.000000e+02  4.140048e+01  8.000000e+00
     vertex  3.000000e+02  0.000000e+00  8.000000e+00
   endloop
 endfacet
 facet normal  5.144958e-01  0.000000e+00  8.574929e-01
   outer loop
     vertex  3.050000e+02  4.140048e+01  5.000000e+00
     vertex  3.000000e+02  0.000000e+00  8.000000e+00
     vertex  3.050000e+02 -1.224647e-15  5.000000e+00
   endloop
 endfacet
 facet normal  1.000000e+00  0.000000e+00 -0.000000e+00
   outer loop
     vertex  3.050000e+02  4.140048e+01 -5.000000e+00
     vertex  3.050000e+02  4.140048e+01  5.000000e+00
     vertex  3.050000e+02 -1.224647e-15  5.000000e+00
   endloop
 endfacet
 facet normal  1.000000e+00  0.000000e+00  0.000000e+00
   outer loop
     vertex  3.050000e+02  4.140048e+01 -5.000000e+00
     vertex  3.050000e+02 -1.224647e-15  5.000000e+00
     vertex  3.050000e+02 -1.224647e-15 -5.000000e+00
   endloop
 endfacet
 facet normal -2.449294e-16 -1.000000e+00 -1.314768e-32
   outer loop
     vertex  3.050000e+02 -1.224647e-15  5.000000e+00
     vertex  3.000000e+02  0.000000e+00  8.000000e+00
     vertex  2.950000e+02  1.224647e-15  5.000000e+00
   endloop
 endfacet
 facet normal -2.449294e-16 -1.000000e+00 -7.888609e-33
   outer loop
     vertex  3.050000e+02 -1.224647e-15 -5.000000e+00
     vertex  2.950000e+02  1.224647e-15  5.000000e+00
     vertex  2.950000e+02  1.224647e-15 -5.000000e+00
   endloop
 endfacet
 facet normal -2.449294e-16 -1.000000e+00  0.000000e+00
   outer loop
     vertex  3.050000e+02 -1.224647e-15 -5.000000e+00
     vertex  3.050000e+02 -1.224647e-15  5.000000e+00
     vertex  2.950000e+02  1.224647e-15  5.000000e+00
   endloop
 endfacet
 facet normal  0.000000e+00  1.000000e+00  0.000000e+00
   outer loop
     vertex  3.050000e+02  4.140048e+01  5.000000e+00
     vertex  3.050000e+02  4.140048e+01 -5.000000e+00
     vertex  2.950000e+02  4.140048e+01 -5.000000e+00
   endloop
 endfacet
 facet normal  0.000000e+00  1.000000e+00  0.000000e+00
   outer loop
     vertex  3.050000e+02  4.140048e+01  5.000000e+00
     vertex  2.950000e+02  4.140048e+01 -5.000000e+00
     vertex  2.950000e+02  4.140048e+01  5.000000e+00
   endloop
 endfacet
 facet normal  0.000000e+00  1.000000e+00  0.000000e+00
   outer loop
     vertex  3.050000e+02  4.140048e+01  5.000000e+00
     vertex  2.950000e+02  4.140048e+01  5.000000e+00
     vertex  3.000000e+02  4.140048e+01  8.000000e+00
   endloop
 endfacet
endsolid
