solid 
 facet normal  1.825742e-01  3.651484e-01 -9.128709e-01
   outer loop
     vertex  2.715817e+02 -6.801703e+01 -3.836771e+01
     vertex  2.964407e+02  4.061810e+00 -4.564355e+00
     vertex  3.053850e+02 -4.103261e-01 -4.564355e+00
   endloop
 endfacet
 facet normal  1.825742e-01  3.651484e-01 -9.128709e-01
   outer loop
     vertex  2.626374e+02 -6.354490e+01 -3.836771e+01
     vertex  2.964407e+02  4.061810e+00 -4.564355e+00
     vertex  2.715817e+02 -6.801703e+01 -3.836771e+01
   endloop
 endfacet
 facet normal -8.944272e-01  4.472136e-01  3.877156e-15
   outer loop
     vertex  2.626374e+02 -6.354490e+01 -3.836771e+01
     vertex  2.946150e+02  4.103261e-01  4.564355e+00
     vertex  2.964407e+02  4.061810e+00 -4.564355e+00
   endloop
 endfacet
 facet normal -8.944272e-01  4.472136e-01 -2.098012e-14
   outer loop
     vertex  2.608116e+02 -6.719638e+01 -2.923900e+01
     vertex  2.946150e+02  4.103261e-01  4.564355e+00
     vertex  2.626374e+02 -6.354490e+01 -3.836771e+01
   endloop
 endfacet
 facet normal -6.167351e-01 -8.302265e-02  7.827804e-01
   outer loop
     vertex  2.647361e+02 -7.052789e+01 -2.650039e+01
     vertex  2.946150e+02  4.103261e-01  4.564355e+00
     vertex  2.608116e+02 -6.719638e+01 -2.923900e+01
   endloop
 endfacet
 facet normal -6.167351e-01 -8.302265e-02  7.827804e-01
   outer loop
     vertex  2.647361e+02 -7.052789e+01 -2.650039e+01
     vertex  2.985394e+02 -2.921187e+00  7.302967e+00
     vertex  2.946150e+02  4.103261e-01  4.564355e+00
   endloop
 endfacet
 facet normal  3.036229e-01 -5.432016e-01  7.827804e-01
   outer loop
     vertex  2.647361e+02 -7.052789e+01 -2.650039e+01
     vertex  3.035593e+02 -4.061810e+00  4.564355e+00
     vertex  2.985394e+02 -2.921187e+00  7.302967e+00
   endloop
 endfacet
 facet normal  3.036229e-01 -5.432016e-01  7.827804e-01
   outer loop
     vertex  2.697559e+02 -7.166852e+01 -2.923900e+01
     vertex  3.035593e+02 -4.061810e+00  4.564355e+00
     vertex  2.647361e+02 -7.052789e+01 -2.650039e+01
   endloop
 endfacet
 facet normal  8.944272e-01 -4.472136e-01  2.392401e-15
   outer loop
     vertex  2.715817e+02 -6.801703e+01 -3.836771e+01
     vertex  3.035593e+02 -4.061810e+00  4.564355e+00
     vertex  2.697559e+02 -7.166852e+01 -2.923900e+01
   endloop
 endfacet
 facet normal  8.944272e-01 -4.472136e-01  2.457554e-15
   outer loop
     vertex  2.715817e+02 -6.801703e+01 -3.836771e+01
     vertex  3.053850e+02 -4.103261e-01 -4.564355e+00
     vertex  3.035593e+02 -4.061810e+00  4.564355e+00
   endloop
 endfacet
 facet normal  4.082483e-01  8.164966e-01  4.082483e-01
   outer loop
     vertex  3.035593e+02 -4.061810e+00  4.564355e+00
     vertex  2.946150e+02  4.103261e-01  4.564355e+00
     vertex  2.985394e+02 -2.921187e+00  7.302967e+00
   endloop
 endfacet
 facet normal  4.082483e-01  8.164966e-01  4.082483e-01
   outer loop
     vertex  3.053850e+02 -4.103261e-01 -4.564355e+00
     vertex  2.964407e+02  4.061810e+00 -4.564355e+00
     vertex  2.946150e+02  4.103261e-01  4.564355e+00
   endloop
 endfacet
 facet normal  4.082483e-01  8.164966e-01  4.082483e-01
   outer loop
     vertex  3.053850e+02 -4.103261e-01 -4.564355e+00
     vertex  2.946150e+02  4.103261e-01  4.564355e+00
     vertex  3.035593e+02 -4.061810e+00  4.564355e+00
   endloop
 endfacet
 facet normal -4.082483e-01 -8.164966e-01 -4.082483e-01
   outer loop
     vertex  2.697559e+02 -7.166852e+01 -2.923900e+01
     vertex  2.647361e+02 -7.052789e+01 -2.650039e+01
     vertex  2.608116e+02 -6.719638e+01 -2.923900e+01
   endloop
 endfacet
 facet normal -4.082483e-01 -8.164966e-01 -4.082483e-01
   outer loop
     vertex  2.626374e+02 -6.354490e+01 -3.836771e+01
     vertex  2.697559e+02 -7.166852e+01 -2.923900e+01
     vertex  2.608116e+02 -6.719638e+01 -2.923900e+01
   endloop
 endfacet
 facet normal -4.082483e-01 -8.164966e-01 -4.082483e-01
   outer loop
     vertex  2.715817e+02 -6.801703e+01 -3.836771e+01
     vertex  2.697559e+02 -7.166852e+01 -2.923900e+01
     vertex  2.626374e+02 -6.354490e+01 -3.836771e+01
   endloop
 endfacet
endsolid
